<?xml version="1.0" standalone="no"?>
<!DOCTYPE svg PUBLIC "-//W3C//DTD SVG 20010904//EN"
 "http://www.w3.org/TR/2001/REC-SVG-20010904/DTD/svg10.dtd">
<svg version="1.0" xmlns="http://www.w3.org/2000/svg"
 width="665" height="313" viewBox="0 0 665 313"
 preserveAspectRatio="xMidYMid meet">

<g transform="translate(0.000000,313.000000) scale(0.100000,-0.100000)"
fill="#FFF" stroke="none">
<path d="M1187 2163 c-4 -3 -7 -201 -7 -440 l0 -433 150 0 150 0 0 125 0 125
48 -8 c26 -4 90 -7 142 -7 81 1 103 5 150 27 30 14 65 35 77 47 62 59 93 193
74 318 -22 147 -86 216 -226 242 -63 12 -547 15 -558 4z m474 -240 c9 -10 14
-40 14 -78 0 -88 -9 -95 -111 -95 l-84 0 0 95 0 95 84 0 c66 0 87 -4 97 -17z"/>
<path d="M2320 2160 c-36 -3 -88 -14 -115 -23 -138 -46 -193 -186 -182 -462
10 -275 82 -368 302 -395 122 -16 252 -5 388 31 l37 10 0 89 0 90 -117 0
c-222 1 -283 17 -298 81 l-7 27 139 4 c116 4 146 8 190 27 95 42 125 98 125
233 -1 145 -41 224 -135 263 -32 13 -215 37 -252 33 -5 0 -39 -4 -75 -8z m167
-242 c28 -26 31 -82 6 -110 -13 -14 -31 -18 -91 -18 l-74 0 4 57 c4 43 10 61
28 75 32 26 97 24 127 -4z"/>
<path d="M3146 2159 c-194 -22 -282 -142 -293 -400 -10 -202 23 -316 112 -398
73 -66 138 -86 275 -85 97 0 234 21 295 44 24 9 25 13 25 100 l0 90 -149 0
c-168 0 -204 8 -228 54 -26 49 -25 247 2 301 29 59 57 68 223 73 l142 5 0 87
0 88 -87 20 c-107 24 -224 32 -317 21z"/>
<path d="M3920 2159 c-235 -25 -310 -132 -310 -439 0 -309 88 -421 350 -445
94 -8 238 9 302 37 62 26 120 92 142 160 27 83 38 233 27 347 -16 152 -58 243
-134 290 -71 43 -236 66 -377 50z m148 -250 c42 -14 52 -53 51 -194 0 -136
-12 -176 -56 -188 -48 -14 -100 -1 -121 31 -23 35 -30 238 -10 297 19 59 68
78 136 54z"/>
<path d="M4570 2138 c-8 -21 -101 -787 -100 -830 0 -16 13 -18 124 -18 l123 0
6 38 c4 20 12 88 18 150 7 61 15 112 19 112 3 0 19 -53 34 -117 16 -65 33
-133 38 -150 l9 -33 119 0 119 0 9 34 c6 19 22 88 38 155 15 67 30 121 34 121
3 0 14 -66 23 -146 9 -80 19 -149 22 -155 4 -5 60 -9 126 -9 117 0 119 0 119
23 1 53 -94 823 -103 835 -6 8 -43 12 -118 12 -93 0 -110 -2 -117 -17 -5 -10
-40 -125 -78 -255 -37 -131 -71 -234 -75 -230 -4 4 -37 113 -74 242 -38 129
-73 241 -78 248 -7 8 -43 12 -118 12 -104 0 -110 -1 -119 -22z"/>
</g>
</svg>
